<svg width="452" height="297" viewBox="0 0 452 297" fill="none" xmlns="http://www.w3.org/2000/svg">
<path fill-rule="evenodd" clip-rule="evenodd" d="M150.456 263.75L139.057 297L202.673 297L219.705 247.868H328.003C381.252 247.868 428.545 213.836 445.475 163.337C472.393 83.0455 412.667 0 328.003 0H296.427H241.882L150.747 262.897L150.456 263.75ZM214.567 0H122.842C71.669 0 26.1134 32.4273 9.34634 80.7886L6.72867 88.3388C-20.3369 166.404 37.6203 247.868 120.225 247.868H129.587L151.362 184.355H120.225C81.2826 184.355 53.96 145.951 66.7194 109.149L69.3371 101.599C77.2416 78.7997 98.7178 63.5125 122.842 63.5125H192.792L214.567 0ZM241.722 184.355H328.003C353.963 184.355 377.02 167.764 385.274 143.144C398.397 104 369.279 63.5125 328.003 63.5125H283.613L241.722 184.355Z" fill="#872B95"/>
</svg>
