<svg width="128" height="64" viewBox="0 0 128 64" fill="none" xmlns="http://www.w3.org/2000/svg">
<circle cx="32" cy="32" r="32" fill="#171821"/>
<path fill-rule="evenodd" clip-rule="evenodd" d="M33.828 28.8778L31.9988 13.4613L30.1739 28.8421L23.4736 23.5399L28.6924 30.193L13.4598 32.0004L28.8399 33.8252L23.4371 40.6528L30.1966 35.3505L31.9988 50.5394L33.8012 35.3487L40.55 40.6892L35.165 33.8244L50.5379 32.0004L35.3466 30.1979L40.5864 23.5764L33.828 28.8778Z" fill="white"/>
<circle cx="96" cy="32" r="32" fill="#FE3D67"/>
<path fill-rule="evenodd" clip-rule="evenodd" d="M96.0345 22.8043C90.6635 18.8402 85.581 17.3054 83.4834 19.387C81.3858 21.4686 82.8815 26.5626 86.8042 31.9638C82.8397 37.3351 81.3047 42.418 83.3864 44.5157C85.4681 46.6134 90.5625 45.1174 95.964 41.1942C101.335 45.1586 106.418 46.6936 108.516 44.6119C110.613 42.5302 109.117 37.4357 105.194 32.0342C109.158 26.6633 110.693 21.581 108.611 19.4834C106.53 17.3858 101.436 18.8815 96.0345 22.8043Z" fill="white"/>
</svg>
