<svg width="314" height="80" viewBox="0 0 314 80" fill="none" xmlns="http://www.w3.org/2000/svg">
<g clip-path="url(#clip0_2001_465)">
<path fill-rule="evenodd" clip-rule="evenodd" d="M40.269 71.7432L37.1674 80.7875H55.1439L59.7781 67.423H89.2441C103.732 67.423 116.6 58.166 121.206 44.4297C128.53 22.5893 112.28 0 89.2441 0H80.6528H65.8121L41.0156 71.5111L40.269 71.7432ZM58.3801 0H33.4234C19.4999 0 7.10502 8.82062 2.54298 21.9755L1.83076 24.0292C-5.53332 45.2638 10.2359 67.423 32.7112 67.423H35.2585L41.1831 50.1468H32.7112C22.1157 50.1468 14.6816 39.7004 18.1533 29.6898L18.8655 27.636C21.0162 21.4345 26.8595 17.2762 33.4234 17.2762H52.4555L58.3801 0ZM65.7686 50.1468H89.2441C96.3075 50.1468 102.581 45.6338 104.827 38.9369C108.397 28.2891 100.475 17.2762 89.2441 17.2762H77.1665L65.7686 50.1468Z" fill="#F97234"/>
<path d="M309.888 67.499V61.1332L310.518 61.8677H304.922C302.357 61.8677 300.34 61.3314 298.871 60.2588C297.425 59.1628 296.702 57.5889 296.702 55.5369C296.702 53.345 297.471 51.6777 299.01 50.5352C300.573 49.3926 302.648 48.8213 305.236 48.8213H313.806V67.499H309.888ZM296.457 67.499L301.494 60.3637H305.971L301.144 67.499H296.457ZM309.888 59.7341V51.3396L310.518 52.4939H305.376C304.024 52.4939 302.975 52.7504 302.228 53.2634C301.506 53.7531 301.144 54.5575 301.144 55.6768C301.144 57.7754 302.508 58.8247 305.236 58.8247H310.518L309.888 59.7341Z" fill="white"/>
<path d="M273.473 67.499V48.8213H277.845V61.1332L288.163 48.8213H292.151V67.499H287.779V55.1871L277.495 67.499H273.473Z" fill="white"/>
<path d="M259.389 67.499V51.4795L260.404 52.5289H252.813V48.8213H270.302V52.5289H262.747L263.761 51.4795V67.499H259.389Z" fill="white"/>
<path d="M230.947 67.499V48.8213H235.319V61.1332L245.638 48.8213H249.625V67.499H245.253V55.1871L234.97 67.499H230.947Z" fill="white"/>
<path d="M209.292 67.499V48.8213H218.421C220.683 48.8213 222.455 49.241 223.737 50.0805C225.043 50.9199 225.696 52.1091 225.696 53.6481C225.696 55.1638 225.09 56.353 223.877 57.2158C222.665 58.0552 221.056 58.475 219.05 58.475L219.575 57.3907C221.837 57.3907 223.516 57.8104 224.612 58.6498C225.731 59.466 226.291 60.6669 226.291 62.2525C226.291 63.9081 225.673 65.2022 224.437 66.1349C223.201 67.0443 221.324 67.499 218.806 67.499H209.292ZM213.454 64.3161H218.456C219.645 64.3161 220.543 64.1296 221.149 63.7565C221.755 63.3601 222.058 62.7655 222.058 61.9727C222.058 61.1332 221.779 60.5153 221.219 60.1189C220.659 59.7225 219.785 59.5243 218.596 59.5243H213.454V64.3161ZM213.454 56.6212H218.036C219.155 56.6212 219.995 56.423 220.554 56.0266C221.137 55.6068 221.429 55.0239 221.429 54.2777C221.429 53.5082 221.137 52.9369 220.554 52.5638C219.995 52.1907 219.155 52.0042 218.036 52.0042H213.454V56.6212Z" fill="white"/>
<path d="M195.869 67.8132C194.446 67.8132 193.035 67.65 191.636 67.3236C190.261 66.9738 189.013 66.4841 187.894 65.8545L189.118 62.6017C190.027 63.1147 191.053 63.5111 192.196 63.7909C193.339 64.0707 194.481 64.2106 195.624 64.2106C196.603 64.2106 197.443 64.1173 198.142 63.9308C198.842 63.7209 199.378 63.4178 199.751 63.0214C200.147 62.625 200.346 62.1703 200.346 61.6573C200.346 60.9111 200.019 60.3515 199.366 59.9784C198.737 59.582 197.827 59.3838 196.638 59.3838H193.035V56.4457H196.288C197.034 56.4457 197.664 56.3641 198.177 56.2008C198.713 56.0376 199.121 55.7928 199.401 55.4663C199.681 55.1399 199.821 54.7551 199.821 54.3121C199.821 53.869 199.646 53.4843 199.296 53.1578C198.97 52.8081 198.492 52.5516 197.862 52.3883C197.233 52.2018 196.475 52.1085 195.589 52.1085C194.656 52.1085 193.688 52.2251 192.686 52.4583C191.706 52.6915 190.704 53.0296 189.678 53.4726L188.558 50.2547C189.748 49.7184 190.902 49.3104 192.021 49.0305C193.164 48.7274 194.295 48.5642 195.414 48.5409C197.116 48.4709 198.632 48.6458 199.961 49.0655C201.29 49.4852 202.339 50.0915 203.109 50.8843C203.878 51.6771 204.263 52.6099 204.263 53.6825C204.263 54.5686 203.983 55.3731 203.424 56.0959C202.887 56.7955 202.141 57.3434 201.185 57.7398C200.252 58.1362 199.18 58.3344 197.967 58.3344L198.107 57.3901C200.182 57.3901 201.815 57.8098 203.004 58.6492C204.193 59.4654 204.788 60.5846 204.788 62.007C204.788 63.1496 204.403 64.164 203.633 65.05C202.864 65.9128 201.803 66.589 200.451 67.0787C199.121 67.5684 197.594 67.8132 195.869 67.8132Z" fill="white"/>
<path d="M180.659 67.4989V63.7214L180.414 62.917V56.3063C180.414 55.0238 180.03 54.0328 179.26 53.3332C178.491 52.6104 177.325 52.2489 175.762 52.2489C174.713 52.2489 173.675 52.4122 172.649 52.7386C171.647 53.0651 170.796 53.5198 170.096 54.1027L168.382 50.9198C169.385 50.1503 170.574 49.579 171.95 49.2059C173.349 48.8095 174.795 48.6113 176.287 48.6113C178.992 48.6113 181.079 49.2642 182.548 50.57C184.04 51.8525 184.786 53.8462 184.786 56.5511V67.4989H180.659ZM174.783 67.7438C173.384 67.7438 172.16 67.5106 171.11 67.0442C170.061 66.5546 169.245 65.89 168.662 65.0506C168.102 64.1878 167.823 63.2201 167.823 62.1475C167.823 61.0981 168.067 60.1538 168.557 59.3143C169.07 58.4749 169.898 57.8103 171.04 57.3206C172.183 56.8309 173.699 56.5861 175.587 56.5861H181.009V59.4892H175.902C174.41 59.4892 173.407 59.734 172.894 60.2237C172.381 60.6901 172.125 61.273 172.125 61.9726C172.125 62.7654 172.439 63.395 173.069 63.8613C173.699 64.3277 174.573 64.5609 175.692 64.5609C176.765 64.5609 177.721 64.316 178.56 63.8264C179.423 63.3367 180.041 62.6138 180.414 61.6578L181.149 64.2811C180.729 65.377 179.971 66.2281 178.875 66.8344C177.803 67.4406 176.439 67.7438 174.783 67.7438Z" fill="white"/>
<path d="M145.19 67.4981V43.0142H155.263C157.432 43.0142 159.285 43.3639 160.824 44.0635C162.387 44.763 163.588 45.7657 164.427 47.0715C165.266 48.3773 165.686 49.928 165.686 51.7234C165.686 53.5189 165.266 55.0696 164.427 56.3754C163.588 57.6812 162.387 58.6839 160.824 59.3834C159.285 60.083 157.432 60.4327 155.263 60.4327H147.708L149.737 58.2991V67.4981H145.19ZM149.737 58.7888L147.708 56.5853H155.053C157.058 56.5853 158.562 56.1655 159.565 55.3261C160.591 54.4633 161.104 53.2624 161.104 51.7234C161.104 50.1611 160.591 48.9603 159.565 48.1208C158.562 47.2814 157.058 46.8616 155.053 46.8616H147.708L149.737 44.6231V58.7888Z" fill="white"/>
<path d="M275.408 32.5235V16.504L276.422 17.5533H268.832V13.8457H286.321V17.5533H278.766L279.78 16.504V32.5235H275.408Z" fill="white"/>
<path d="M246.968 32.5235V13.8457H251.34V26.1576L261.658 13.8457H265.645V32.5235H261.273V20.2115L250.99 32.5235H246.968Z" fill="white"/>
<path d="M218.787 32.5235V13.8457H223.369L230.889 27.102H229.07L236.975 13.8457H241.068L241.103 32.5235H237.15V18.5326L237.85 18.9873L230.854 30.5647H228.966L221.935 18.6725L222.775 18.4627V32.5235H218.787Z" fill="white"/>
<path d="M190.607 32.5235V13.8457H195.189L202.709 27.102H200.89L208.795 13.8457H212.887L212.922 32.5235H208.97V18.5326L209.67 18.9873L202.674 30.5647H200.785L193.755 18.6725L194.594 18.4627V32.5235H190.607Z" fill="white"/>
<path d="M181.069 32.5219V28.7444L180.824 27.9399V21.3292C180.824 20.0467 180.439 19.0557 179.67 18.3562C178.9 17.6333 177.734 17.2719 176.172 17.2719C175.123 17.2719 174.085 17.4351 173.059 17.7616C172.056 18.088 171.205 18.5427 170.506 19.1257L168.792 15.9428C169.795 15.1733 170.984 14.602 172.36 14.2289C173.759 13.8325 175.204 13.6343 176.697 13.6343C179.402 13.6343 181.489 14.2872 182.958 15.593C184.45 16.8755 185.196 18.8692 185.196 21.5741V32.5219H181.069ZM175.193 32.7667C173.794 32.7667 172.569 32.5336 171.52 32.0672C170.471 31.5775 169.655 30.913 169.072 30.0735C168.512 29.2107 168.232 28.243 168.232 27.1704C168.232 26.1211 168.477 25.1767 168.967 24.3373C169.48 23.4978 170.308 22.8332 171.45 22.3436C172.593 21.8539 174.108 21.609 175.997 21.609H181.419V24.5121H176.312C174.82 24.5121 173.817 24.757 173.304 25.2467C172.791 25.713 172.534 26.296 172.534 26.9955C172.534 27.7883 172.849 28.4179 173.479 28.8843C174.108 29.3506 174.983 29.5838 176.102 29.5838C177.175 29.5838 178.131 29.339 178.97 28.8493C179.833 28.3596 180.451 27.6368 180.824 26.6807L181.559 29.304C181.139 30.4 180.381 31.2511 179.285 31.8573C178.212 32.4636 176.848 32.7667 175.193 32.7667Z" fill="white"/>
<path d="M156.451 32.871C154.586 32.871 152.849 32.5679 151.24 31.9616C149.654 31.332 148.267 30.4576 147.078 29.3383C145.912 28.1957 145.002 26.8549 144.349 25.3159C143.696 23.777 143.37 22.0981 143.37 20.2792C143.37 18.4604 143.696 16.7815 144.349 15.2425C145.002 13.7036 145.923 12.3744 147.113 11.2552C148.302 10.1126 149.689 9.23815 151.275 8.63188C152.86 8.00229 154.598 7.6875 156.486 7.6875C158.492 7.6875 160.322 8.03727 161.978 8.73681C163.633 9.41304 165.032 10.4274 166.175 11.7798L163.237 14.543C162.351 13.587 161.36 12.8758 160.264 12.4094C159.168 11.9197 157.979 11.6749 156.696 11.6749C155.414 11.6749 154.236 11.8847 153.164 12.3045C152.114 12.7242 151.193 13.3188 150.4 14.0883C149.631 14.8578 149.025 15.7672 148.582 16.8165C148.162 17.8658 147.952 19.0201 147.952 20.2792C147.952 21.5384 148.162 22.6927 148.582 23.742C149.025 24.7913 149.631 25.7007 150.4 26.4702C151.193 27.2397 152.114 27.8343 153.164 28.254C154.236 28.6737 155.414 28.8836 156.696 28.8836C157.979 28.8836 159.168 28.6504 160.264 28.1841C161.36 27.6944 162.351 26.9599 163.237 25.9805L166.175 28.7787C165.032 30.1078 163.633 31.1221 161.978 31.8217C160.322 32.5212 158.48 32.871 156.451 32.871Z" fill="white"/>
</g>
<defs>
<clipPath id="clip0_2001_465">
<rect width="314" height="80" fill="white"/>
</clipPath>
</defs>
</svg>
