<svg width="526" height="526" viewBox="0 0 526 526" fill="none" xmlns="http://www.w3.org/2000/svg">
<mask id="mask0_1_1270" style="mask-type:alpha" maskUnits="userSpaceOnUse" x="0" y="0" width="526" height="526">
<path fill-rule="evenodd" clip-rule="evenodd" d="M0 263C0 408.251 117.749 526 263 526L263 263L526 263C526 117.749 408.251 0 263 0L263 263L0 263Z" fill="#D9D9D9"/>
</mask>
<g mask="url(#mask0_1_1270)">
<path fill-rule="evenodd" clip-rule="evenodd" d="M278.396 263.645C278.396 392.522 271.454 496.997 262.89 496.997C254.382 496.997 247.475 393.91 247.384 266.219C247.291 391.909 240.384 493.374 231.878 493.374C223.37 493.374 216.462 391.86 216.372 266.127C216.279 387.958 209.373 486.31 200.866 486.31C192.36 486.31 185.453 387.958 185.36 266.128C185.261 379.834 178.357 471.599 169.855 471.599C161.342 471.599 154.432 379.619 154.349 265.728C154.259 371.342 147.351 456.612 138.843 456.612C130.279 456.612 123.336 370.218 123.336 263.646C123.336 157.074 130.279 70.6797 138.843 70.6797C147.351 70.6797 154.259 155.949 154.349 261.561C154.432 147.669 161.342 55.6875 169.855 55.6875C178.357 55.6875 185.261 147.453 185.36 261.159C185.453 139.328 192.36 40.9766 200.866 40.9766C209.373 40.9766 216.279 139.33 216.372 261.162C216.462 135.431 223.37 33.918 231.878 33.918C240.384 33.918 247.291 135.383 247.384 261.072C247.475 133.381 254.382 30.293 262.89 30.293C271.454 30.293 278.396 134.768 278.396 263.645ZM309.415 266.127C309.325 391.86 302.417 493.374 293.909 493.374C285.345 493.374 278.402 390.521 278.402 263.646C278.402 136.771 285.345 33.918 293.909 33.918C302.417 33.918 309.325 135.431 309.415 261.162C309.508 139.33 316.414 40.9766 324.921 40.9766C333.485 40.9766 340.428 140.668 340.428 263.643C340.428 386.619 333.485 486.31 324.921 486.31C316.414 486.31 309.508 387.958 309.415 266.127ZM371.442 265.841C371.354 379.68 364.446 471.599 355.936 471.599C347.372 471.599 340.43 378.494 340.43 263.643C340.43 148.792 347.372 55.6875 355.936 55.6875C364.446 55.6875 371.355 147.609 371.442 261.448C371.537 155.888 378.443 70.6797 386.948 70.6797C395.459 70.6797 402.369 156.008 402.454 261.671C402.551 169.415 409.456 94.9531 417.96 94.9531C426.524 94.9531 433.467 170.477 433.467 263.641C433.467 356.805 426.524 432.33 417.96 432.33C409.456 432.33 402.551 357.87 402.454 265.616C402.369 371.281 395.46 456.612 386.948 456.612C378.443 456.612 371.537 371.402 371.442 265.841ZM107.823 432.33C116.387 432.33 123.33 356.805 123.33 263.641C123.33 170.477 116.387 94.9531 107.823 94.9531C99.3476 94.9531 92.4602 168.923 92.3186 260.756C92.141 187.98 85.268 129.457 76.8154 129.457C68.2512 129.457 61.3086 189.535 61.3086 263.645C61.3086 337.756 68.2512 397.834 76.8154 397.834C85.2681 397.834 92.1412 339.309 92.3186 266.531C92.4604 358.362 99.3478 432.33 107.823 432.33ZM448.976 397.834C457.54 397.834 464.482 337.756 464.482 263.645C464.482 189.535 457.54 129.457 448.976 129.457C440.411 129.457 433.469 189.535 433.469 263.645C433.469 337.756 440.411 397.834 448.976 397.834ZM496.221 263.643C496.221 301.796 489.278 332.724 480.714 332.724C472.15 332.724 465.207 301.796 465.207 263.643C465.207 225.491 472.15 194.562 480.714 194.562C489.278 194.562 496.221 225.491 496.221 263.643ZM45.7997 332.724C54.3639 332.724 61.3065 301.796 61.3065 263.643C61.3065 225.491 54.3639 194.562 45.7997 194.562C37.2356 194.562 30.293 225.491 30.293 263.643C30.293 301.796 37.2356 332.724 45.7997 332.724Z" fill="#F97234"/>
</g>
</svg>
