<svg width="33" height="21" viewBox="0 0 33 21" fill="none" xmlns="http://www.w3.org/2000/svg">
<path d="M31.9862 2.08925C32.2097 1.33411 31.9862 0.77832 30.9109 0.77832H27.3526C26.4464 0.77832 26.0296 1.25557 25.8061 1.7872C25.8061 1.7872 23.9937 6.20329 21.4323 9.0668C20.6046 9.89444 20.224 10.1603 19.771 10.1603C19.5474 10.1603 19.2031 9.89444 19.2031 9.1393V2.08925C19.2031 1.18308 18.9494 0.77832 18.2003 0.77832H12.6061C12.0383 0.77832 11.7 1.2012 11.7 1.59388C11.7 2.45172 12.9807 2.65108 13.1136 5.06755V10.3113C13.1136 11.4591 12.9082 11.6705 12.4551 11.6705C11.2469 11.6705 8.31086 7.23633 6.571 2.16175C6.22061 1.17704 5.87627 0.77832 4.96405 0.77832H1.4058C0.390886 0.77832 0.185486 1.25557 0.185486 1.7872C0.185486 2.72962 1.39372 7.41152 5.80981 13.5977C8.75186 17.8205 12.8961 20.1101 16.6658 20.1101C18.9312 20.1101 19.2091 19.6026 19.2091 18.7266C19.2091 14.6911 19.0037 14.3105 20.1395 14.3105C20.665 14.3105 21.5712 14.5764 23.6856 16.6122C26.1021 19.0287 26.5008 20.1101 27.854 20.1101H31.4123C32.4272 20.1101 32.9407 19.6026 32.6447 18.5998C31.9681 16.4914 27.3949 12.1538 27.1895 11.8639C26.6639 11.1873 26.815 10.8852 27.1895 10.2811C27.1956 10.275 31.5392 4.16137 31.9862 2.08925Z" fill="#872B95"/>
</svg>
