<svg width="37" height="28" viewBox="0 0 37 28" fill="none" xmlns="http://www.w3.org/2000/svg">
<path d="M33.9862 6.08925C34.2097 5.33411 33.9862 4.77832 32.9109 4.77832H29.3526C28.4464 4.77832 28.0296 5.25557 27.8061 5.7872C27.8061 5.7872 25.9937 10.2033 23.4323 13.0668C22.6046 13.8944 22.224 14.1603 21.771 14.1603C21.5474 14.1603 21.2031 13.8944 21.2031 13.1393V6.08925C21.2031 5.18308 20.9494 4.77832 20.2003 4.77832H14.6061C14.0383 4.77832 13.7 5.2012 13.7 5.59388C13.7 6.45172 14.9807 6.65108 15.1136 9.06755V14.3113C15.1136 15.4591 14.9082 15.6705 14.4551 15.6705C13.2469 15.6705 10.3109 11.2363 8.571 6.16175C8.22061 5.17704 7.87627 4.77832 6.96405 4.77832H3.4058C2.39089 4.77832 2.18549 5.25557 2.18549 5.7872C2.18549 6.72962 3.39372 11.4115 7.80981 17.5977C10.7519 21.8205 14.8961 24.1101 18.6658 24.1101C20.9312 24.1101 21.2091 23.6026 21.2091 22.7266C21.2091 18.6911 21.0037 18.3105 22.1395 18.3105C22.665 18.3105 23.5712 18.5764 25.6856 20.6122C28.1021 23.0287 28.5008 24.1101 29.854 24.1101H33.4123C34.4272 24.1101 34.9407 23.6026 34.6447 22.5998C33.9681 20.4914 29.3949 16.1538 29.1895 15.8639C28.6639 15.1873 28.815 14.8852 29.1895 14.2811C29.1956 14.275 33.5392 8.16137 33.9862 6.08925Z" fill="#872B95"/>
</svg>
